<?xml version="1.0" standalone="no"?>
<!DOCTYPE svg PUBLIC "-//W3C//DTD SVG 20010904//EN"
 "http://www.w3.org/TR/2001/REC-SVG-20010904/DTD/svg10.dtd">
<svg version="1.0" xmlns="http://www.w3.org/2000/svg"
 width="640.000000pt" height="640.000000pt" viewBox="0 0 640.000000 640.000000"
 preserveAspectRatio="xMidYMid meet">
<metadata>
Created by potrace 1.11, written by Peter Selinger 2001-2013
</metadata>
<g transform="translate(0.000000,640.000000) scale(0.100000,-0.100000)"
fill="#000000" stroke="none">
<path d="M2874 6294 c-36 -10 -66 -26 -194 -97 -25 -14 -61 -28 -80 -32 -70
-13 -136 -40 -191 -78 -54 -36 -59 -38 -95 -28 -51 14 -63 13 -41 -3 15 -12 5
-14 -75 -19 -51 -3 -102 -8 -113 -10 -11 -3 -23 -6 -27 -6 -16 -2 -7 -19 12
-24 11 -3 18 -1 14 4 -3 5 12 9 32 9 21 0 34 -3 31 -7 -4 -3 -1 -13 5 -21 10
-11 8 -14 -12 -12 -40 4 -44 1 -26 -19 14 -16 14 -20 2 -30 -8 -6 -23 -14 -34
-16 -27 -5 -112 -85 -112 -105 0 -24 -22 -49 -48 -53 -33 -5 -47 -24 -47 -64
0 -25 -6 -39 -20 -47 -11 -6 -39 -28 -62 -48 -24 -21 -47 -38 -53 -38 -6 0
-25 -24 -44 -53 -19 -29 -42 -59 -52 -67 -31 -26 -53 -91 -50 -150 2 -32 -2
-66 -10 -82 -8 -15 -14 -37 -14 -48 0 -12 -6 -28 -14 -35 -7 -8 -17 -36 -21
-62 -4 -26 -15 -83 -25 -126 -15 -63 -17 -89 -9 -139 7 -42 7 -64 -1 -72 -5
-5 -10 -23 -10 -38 0 -16 -10 -42 -22 -58 -19 -26 -28 -30 -70 -30 -26 0 -48
-4 -48 -10 0 -5 8 -10 18 -10 21 0 72 -46 72 -65 0 -15 36 -30 64 -26 11 2 16
-2 12 -8 -4 -6 -2 -20 4 -31 8 -15 7 -33 -5 -72 -8 -28 -15 -69 -15 -90 0 -27
-6 -41 -20 -50 -11 -7 -20 -18 -20 -25 0 -7 -10 -24 -22 -38 l-21 -24 -46 38
c-36 31 -52 38 -73 34 -27 -5 -118 38 -118 55 0 6 -33 16 -171 53 -20 5 -49 9
-64 9 -79 0 -405 -87 -485 -129 -42 -23 -54 -47 -18 -38 14 4 57 10 96 13 79
7 102 -4 100 -47 -2 -33 -16 -49 -44 -49 -13 0 -24 -4 -24 -9 0 -5 -9 -11 -20
-14 -19 -5 -20 -14 -20 -162 0 -151 -1 -157 -25 -189 -16 -21 -25 -46 -25 -69
0 -29 -5 -39 -26 -50 -17 -9 -23 -17 -15 -21 17 -11 13 -23 -17 -54 -31 -31
-43 -55 -47 -86 -1 -10 -9 -23 -18 -28 -12 -6 -17 -23 -17 -58 0 -27 -4 -52
-10 -55 -5 -3 -10 -17 -10 -30 0 -13 -5 -27 -11 -30 -6 -4 -9 -23 -7 -44 3
-30 0 -36 -18 -39 -12 -2 -39 -18 -60 -36 -29 -25 -37 -39 -36 -64 0 -26 -7
-37 -41 -62 -30 -22 -36 -30 -21 -30 10 0 31 6 45 14 49 25 188 76 209 76 11
0 20 4 20 9 0 5 17 15 37 22 21 6 71 29 112 50 41 22 78 39 83 39 5 0 30 9 54
21 38 17 51 18 76 10 17 -6 45 -11 62 -11 17 0 37 -4 45 -9 16 -10 159 19 240
50 69 25 181 87 181 99 0 15 70 30 171 37 94 6 99 5 163 -25 36 -17 66 -27 66
-22 0 27 -33 155 -56 215 -43 115 -54 166 -54 240 0 88 14 117 62 129 33 8 43
6 88 -22 28 -18 55 -32 60 -32 5 0 22 -16 37 -35 15 -19 33 -35 40 -35 6 0 22
-17 34 -37 13 -21 40 -56 60 -78 21 -22 49 -71 64 -110 38 -98 54 -133 64
-139 10 -7 20 66 15 116 -2 21 -1 38 2 38 12 0 171 -86 207 -111 21 -15 51
-31 67 -34 24 -5 32 -15 46 -58 27 -83 41 -105 76 -115 105 -33 473 -69 503
-50 6 4 49 2 95 -3 47 -5 96 -7 110 -3 14 4 31 8 39 10 8 1 17 7 20 12 3 5 15
12 26 16 46 14 102 89 139 186 69 180 62 173 176 168 73 -3 60 12 136 -151 29
-60 57 -105 72 -115 54 -35 405 -21 587 24 116 29 249 77 271 99 14 14 26 45
34 93 11 57 18 75 38 88 24 16 24 17 18 132 -4 65 -8 147 -9 183 -2 43 -9 75
-20 93 -18 26 -18 27 13 52 57 48 64 74 50 185 -9 71 -9 107 -1 131 18 56 40
251 30 270 -5 9 -6 61 -2 115 9 132 9 133 -20 191 -14 27 -44 105 -66 173 -23
67 -48 137 -56 153 -7 17 -28 66 -45 109 -18 42 -35 77 -40 77 -4 0 -13 21
-19 46 -6 25 -20 55 -31 66 -10 11 -21 32 -25 46 -7 29 -30 53 -94 96 -30 21
-41 35 -38 48 3 10 1 18 -3 18 -15 0 -119 101 -125 121 -8 23 -154 95 -222
109 -27 5 -64 14 -83 19 -36 9 -44 12 -208 76 -51 19 -115 40 -142 45 -38 7
-58 18 -80 43 -41 47 -207 127 -170 82 10 -12 9 -15 -4 -15 -10 0 -14 -4 -11
-10 3 -5 17 -10 29 -10 22 0 54 -25 45 -34 -4 -4 -197 -29 -214 -28 -83 7
-140 21 -151 37 -11 15 -22 17 -74 11 -39 -5 -60 -3 -60 3 0 6 12 13 28 17 46
10 53 14 48 23 -9 14 -80 17 -122 5z m596 -74 c0 -6 -7 -10 -15 -10 -8 0 -15
2 -15 4 0 2 -3 12 -7 21 -5 15 -3 16 15 6 12 -7 22 -16 22 -21z m-1680 -687
c0 -11 -62 -45 -69 -38 -3 4 5 15 19 25 26 20 50 26 50 13z m-127 -187 c-10
-13 -19 -23 -21 -21 -7 6 19 45 29 45 5 0 2 -11 -8 -24z m898 -567 c-9 -23
-10 -22 -10 11 -1 23 2 31 9 24 7 -7 7 -19 1 -35z m243 -35 c12 -3 28 -12 36
-20 17 -14 90 -9 90 7 0 23 72 7 163 -35 31 -14 107 -1 107 19 0 14 53 16 62
2 11 -17 206 -17 212 0 7 18 24 16 57 -8 l30 -21 -6 24 c-8 30 20 70 34 49 7
-11 10 -11 17 1 15 25 49 30 71 11 81 -71 131 -94 185 -87 158 20 180 20 213
-2 27 -18 122 -27 131 -13 2 4 26 8 53 7 41 0 53 5 80 31 48 47 79 39 112 -27
15 -28 41 -63 58 -77 32 -28 44 -69 16 -59 -8 4 -15 1 -15 -5 0 -6 6 -11 13
-11 10 0 13 -16 12 -62 -1 -62 18 -128 38 -128 5 0 7 -6 4 -14 -3 -7 6 -37 20
-66 23 -49 25 -60 19 -149 -8 -118 -23 -188 -42 -195 -8 -3 -14 -1 -14 4 0 6
-7 10 -16 10 -8 0 -12 5 -9 11 10 15 -25 51 -39 40 -7 -6 -29 -1 -61 15 -53
25 -90 31 -100 14 -3 -5 -23 -10 -44 -10 -20 0 -42 -5 -48 -11 -6 -6 -51 -12
-100 -14 -48 -1 -97 -7 -108 -12 -45 -24 -102 -43 -140 -47 -76 -7 -102 -17
-114 -44 -10 -20 -9 -27 1 -33 10 -6 7 -14 -11 -31 l-23 -23 7 22 c5 18 3 22
-9 17 -12 -5 -15 -2 -10 10 5 12 2 15 -10 10 -9 -3 -16 -14 -16 -23 0 -9 -7
-27 -16 -39 -18 -25 -3 -30 21 -6 23 24 27 12 10 -30 -26 -61 -130 -93 -142
-44 -5 19 -33 26 -33 8 0 -5 5 -10 10 -10 6 0 10 -5 10 -11 0 -6 -8 -8 -19 -4
-11 3 -22 1 -26 -5 -9 -14 -45 6 -45 26 0 10 7 13 23 9 17 -5 26 1 40 25 20
34 14 39 -16 13 -19 -17 -19 -17 -12 7 12 42 11 45 -22 48 -32 3 -33 3 -26
-30 6 -31 6 -32 -11 -16 -9 10 -32 20 -51 24 -19 3 -35 11 -35 16 0 6 11 8 25
6 14 -3 25 -1 25 3 0 14 -60 10 -61 -3 0 -7 -5 -2 -10 11 -6 15 -14 21 -25 17
-9 -3 -12 -2 -9 4 4 6 -5 10 -22 10 -45 -1 -127 12 -140 22 -7 5 -47 11 -90
12 -43 1 -82 4 -88 7 -14 7 -108 5 -182 -5 -52 -7 -63 -12 -63 -27 0 -11 -2
-19 -4 -19 -2 0 -11 -3 -20 -6 -9 -3 -16 -1 -16 5 0 6 7 11 15 11 8 0 15 5 15
11 0 6 -6 9 -14 6 -8 -3 -34 -11 -58 -17 -24 -7 -50 -17 -58 -23 -32 -25 -59
-36 -62 -26 -2 6 -14 5 -31 -3 -15 -8 -25 -19 -22 -26 3 -8 5 -18 5 -24 0 -6
8 -1 19 10 10 12 21 22 25 22 11 0 6 -18 -10 -35 -9 -9 -15 -18 -13 -20 7 -7
139 -8 146 -2 10 11 45 8 38 -3 -3 -5 4 -10 17 -11 17 -1 15 -3 -12 -11 -19
-6 -49 -11 -66 -13 -17 -1 -35 -4 -40 -8 -5 -3 -29 -4 -54 -3 -25 1 -52 -2
-61 -8 -19 -10 -72 0 -64 13 3 5 -4 7 -16 4 -12 -3 -24 -2 -28 3 -3 5 -33 15
-66 22 -78 16 -147 51 -163 84 -10 21 -10 42 -1 100 6 40 15 75 19 78 4 3 10
16 14 30 6 20 5 22 -4 10 -10 -12 -11 -11 -4 5 4 11 8 32 8 48 1 15 5 27 9 27
5 0 6 4 2 10 -3 5 -12 7 -21 3 -13 -5 -14 6 -8 76 4 44 4 81 0 81 -16 0 -33
-26 -28 -42 3 -14 0 -17 -13 -12 -12 5 -15 13 -10 28 4 11 8 30 9 41 1 11 10
41 20 68 10 26 16 50 12 54 -3 3 -6 1 -6 -5 0 -19 -18 -14 -22 5 -2 12 7 23
26 33 16 8 36 26 45 39 15 24 15 24 -6 19 -20 -5 -21 -3 -13 12 16 30 11 34
-9 9 -11 -13 -22 -21 -26 -17 -8 7 12 49 29 60 8 6 8 8 0 8 -7 0 -26 -15 -44
-32 -31 -31 -32 -29 -13 19 4 11 3 14 -5 9 -7 -4 -12 -2 -12 3 0 6 7 11 15 11
8 0 24 9 35 20 12 12 33 20 54 20 20 0 42 8 52 18 17 17 31 20 107 23 24 1 37
7 37 15 0 8 11 14 25 14 14 0 25 5 25 10 0 6 9 10 19 10 38 0 51 11 45 36 -4
15 -2 24 5 24 6 0 11 -5 11 -11 0 -6 6 -9 14 -6 8 3 20 -1 26 -9 19 -22 37
-17 45 13 6 26 8 26 19 10 16 -21 27 -22 20 -2 -5 11 1 15 25 15 21 0 38 8 53
25 l21 25 25 -35 c14 -19 34 -37 46 -41z m-207 44 c-3 -8 -6 -5 -6 6 -1 11 2
17 5 13 3 -3 4 -12 1 -19z m-120 -74 c-3 -3 -12 -4 -19 -1 -8 3 -5 6 6 6 11 1
17 -2 13 -5z m676 -1 c-7 -2 -21 -2 -30 0 -10 3 -4 5 12 5 17 0 24 -2 18 -5z
m-783 -39 c0 -2 -11 -4 -25 -4 -14 0 -25 4 -25 9 0 4 11 6 25 3 14 -2 25 -6
25 -8z m2147 -730 c-9 -9 -28 6 -21 18 4 6 10 6 17 -1 6 -6 8 -13 4 -17z m10
-69 c1 -5 -2 -17 -7 -25 -7 -12 -34 -15 -127 -16 -65 -1 -110 1 -100 3 9 2 17
8 17 12 0 4 28 9 63 10 34 1 68 8 75 15 15 15 74 16 79 1z m173 -26 c0 -10 -4
-19 -10 -19 -5 0 -10 12 -10 26 0 14 4 23 10 19 6 -3 10 -15 10 -26z m-57 -83
c4 -6 7 -71 6 -144 -1 -114 -3 -135 -20 -155 -10 -12 -18 -16 -19 -9 0 6 5 12
12 12 6 0 8 3 5 6 -8 9 -38 -16 -32 -26 4 -6 -88 -37 -166 -55 -25 -6 -27 -4
-32 37 -3 24 -8 58 -11 76 -4 29 0 36 27 53 18 11 40 18 50 15 11 -3 17 2 17
12 0 10 17 33 38 53 29 27 38 44 40 72 3 47 29 79 57 71 11 -4 23 -12 28 -18z
m-468 -45 c3 -5 1 -12 -5 -16 -5 -3 -10 1 -10 9 0 18 6 21 15 7z m-1155 -83
c0 -16 -3 -19 -11 -11 -6 6 -8 16 -5 22 11 17 16 13 16 -11z m808 -50 c-18
-27 -41 -30 -46 -6 -2 12 5 18 25 21 15 2 30 5 32 6 2 0 -3 -9 -11 -21z m-541
-50 c-3 -8 -6 -5 -6 6 -1 11 2 17 5 13 3 -3 4 -12 1 -19z m528 -48 c-3 -6 1
-18 11 -27 16 -16 16 -16 9 7 -7 21 -3 20 26 -12 27 -28 44 -37 86 -43 39 -5
52 -11 56 -27 3 -11 10 -18 14 -15 5 3 15 2 23 -4 24 -14 -161 -11 -190 4 -14
7 -30 26 -35 43 -6 17 -16 39 -24 48 -13 15 -13 19 0 27 19 12 32 11 24 -1z
m-1314 -64 c6 3 18 -3 28 -15 10 -11 20 -19 22 -16 5 5 54 -12 109 -37 71 -33
106 -46 138 -53 68 -14 28 -43 -63 -46 -142 -4 -216 16 -234 64 -9 25 -23 129
-15 109 3 -6 10 -9 15 -6z m1796 8 c-3 -3 -12 -4 -19 -1 -8 3 -5 6 6 6 11 1
17 -2 13 -5z m-940 -66 c-3 -8 -6 -5 -6 6 -1 11 2 17 5 13 3 -3 4 -12 1 -19z"/>
<path d="M2730 4740 c0 -5 5 -10 10 -10 6 0 10 5 10 10 0 6 -4 10 -10 10 -5 0
-10 -4 -10 -10z"/>
<path d="M3583 4685 c-7 -8 -13 -18 -13 -24 0 -5 -3 -11 -7 -14 -5 -2 -2 -2 6
0 7 2 20 -2 28 -8 18 -16 22 -10 16 29 -6 35 -12 39 -30 17z"/>
<path d="M3490 4670 c0 -5 5 -10 11 -10 5 0 7 5 4 10 -3 6 -8 10 -11 10 -2 0
-4 -4 -4 -10z"/>
<path d="M2177 4195 c-4 -8 -2 -17 3 -20 6 -4 10 3 10 14 0 25 -6 27 -13 6z"/>
<path d="M4328 4033 c7 -3 16 -2 19 1 4 3 -2 6 -13 5 -11 0 -14 -3 -6 -6z"/>
<path d="M2665 3889 c-4 -6 -5 -13 -2 -16 7 -7 27 6 27 18 0 12 -17 12 -25 -2z"/>
<path d="M2530 3829 c0 -5 5 -7 10 -4 6 3 10 8 10 11 0 2 -4 4 -10 4 -5 0 -10
-5 -10 -11z"/>
<path d="M3625 3775 c0 -13 3 -21 8 -18 4 2 7 10 7 18 0 8 -3 16 -7 18 -5 3
-8 -5 -8 -18z"/>
<path d="M2450 3740 c0 -5 5 -10 10 -10 6 0 10 5 10 10 0 6 -4 10 -10 10 -5 0
-10 -4 -10 -10z"/>
<path d="M2688 3263 c6 -2 18 -2 25 0 6 3 1 5 -13 5 -14 0 -19 -2 -12 -5z"/>
<path d="M1995 6030 c-3 -5 -1 -10 4 -10 6 0 11 5 11 10 0 6 -2 10 -4 10 -3 0
-8 -4 -11 -10z"/>
<path d="M1632 3808 c-22 -22 -13 -100 22 -201 20 -58 37 -93 42 -86 4 7 9 67
12 134 4 115 3 124 -17 144 -24 24 -41 27 -59 9z"/>
<path d="M1864 3514 c-32 -19 -70 -46 -83 -59 -22 -22 -23 -27 -13 -67 6 -24
14 -62 18 -86 8 -56 52 -102 99 -102 39 0 50 19 28 50 -26 37 -13 131 26 186
33 48 34 69 3 98 -17 15 -22 13 -78 -20z"/>
<path d="M1990 3161 c0 -12 11 -23 30 -30 35 -12 42 5 12 32 -25 22 -42 21
-42 -2z"/>
<path d="M3216 3063 c-31 -8 -147 -114 -159 -146 -3 -9 -11 -17 -17 -17 -9 0
-53 -85 -48 -93 1 -1 -5 -15 -14 -32 -17 -31 -37 -89 -58 -165 -6 -25 -18 -59
-26 -77 -9 -23 -10 -34 -3 -39 6 -4 15 -1 19 6 4 7 12 10 18 6 6 -4 8 2 5 14
-4 16 1 21 28 27 28 5 30 7 14 14 -11 4 -15 8 -8 8 7 1 19 17 29 36 13 29 20
34 45 31 21 -2 30 2 34 15 4 11 13 19 21 19 18 0 54 31 54 47 0 14 14 17 78
13 23 -1 42 1 42 4 0 10 -39 46 -51 46 -6 0 -17 6 -24 14 -12 11 -12 16 -2 25
16 13 73 -1 70 -18 -2 -6 4 -11 12 -11 8 0 15 5 15 11 0 18 -32 79 -41 79 -5
0 -9 17 -9 38 0 27 8 48 32 76 24 30 29 42 21 55 -10 17 -44 23 -77 14z"/>
<path d="M4122 2863 c9 -10 19 -29 23 -42 4 -14 27 -50 51 -80 24 -31 44 -61
44 -67 0 -14 38 -49 46 -41 3 3 1 14 -5 25 -6 12 -11 34 -11 50 0 26 -7 39
-50 89 -5 7 -10 16 -10 20 -1 23 -40 56 -70 60 -31 3 -32 2 -18 -14z"/>
<path d="M2197 2846 c-4 -10 -5 -21 -2 -24 9 -9 17 6 13 25 -3 17 -4 17 -11
-1z"/>
<path d="M3880 2765 c-19 -22 -8 -25 13 -3 9 10 13 18 8 18 -5 0 -14 -7 -21
-15z"/>
<path d="M3411 2757 c-8 -10 -7 -21 2 -40 6 -15 15 -27 20 -27 17 0 5 -26 -18
-37 -22 -10 -25 -9 -25 9 0 10 -4 17 -8 14 -5 -3 -6 -24 -3 -48 5 -33 10 -42
24 -40 9 2 17 -3 17 -11 0 -14 23 -30 45 -32 6 0 16 -4 23 -8 7 -5 14 -3 17 5
3 8 20 12 48 11 66 -3 77 3 77 44 0 30 2 34 15 23 8 -7 15 -29 16 -49 1 -39 8
-66 25 -94 10 -17 13 -17 42 12 17 17 38 31 47 31 12 0 16 6 12 19 -3 12 1 22
9 25 8 3 14 -1 14 -9 0 -17 36 -39 50 -30 6 3 10 12 10 20 0 7 9 17 21 20 12
4 18 12 15 21 -3 7 -1 16 4 19 6 4 10 -1 10 -9 0 -9 7 -16 16 -16 11 0 14 8
12 28 -3 25 -6 27 -40 24 -29 -3 -38 0 -38 11 0 9 5 17 12 19 20 7 0 38 -24
38 -13 0 -36 -11 -53 -25 -26 -21 -28 -26 -15 -36 13 -9 12 -10 -3 -5 -11 3
-27 -2 -40 -14 -25 -24 -41 -21 -45 8 -2 14 -11 22 -23 22 -12 0 -46 22 -77
48 -31 27 -70 54 -85 60 -37 16 -92 15 -106 -1z m42 -172 c4 -8 2 -17 -3 -20
-6 -4 -10 -4 -10 -1 0 2 -3 11 -6 20 -3 9 -2 16 4 16 5 0 12 -7 15 -15z m307
-1 c0 -8 -5 -12 -10 -9 -6 4 -8 11 -5 16 9 14 15 11 15 -7z"/>
<path d="M3928 2663 c-10 -2 -18 -9 -18 -14 0 -6 8 -5 20 1 11 6 20 13 20 15
0 3 -1 4 -2 4 -2 -1 -11 -3 -20 -6z"/>
<path d="M4117 2594 c18 -25 43 -93 43 -116 0 -5 -9 -8 -20 -8 -12 0 -32 -7
-45 -16 -34 -22 -111 -41 -180 -43 -33 -1 -104 -8 -157 -17 -99 -15 -155 -12
-127 8 11 8 10 9 -4 4 -32 -10 -401 -8 -449 3 -26 6 -63 18 -82 28 -31 14 -34
19 -29 46 5 26 4 29 -11 24 -10 -4 -28 -7 -40 -7 -18 0 -23 -6 -24 -29 0 -16
5 -32 12 -34 8 -3 17 -22 20 -42 4 -20 10 -35 12 -32 3 3 17 -1 31 -8 14 -8
40 -11 58 -8 19 3 55 -2 85 -12 29 -10 64 -17 79 -17 14 0 33 -4 42 -9 18 -9
59 -1 59 12 0 5 -7 9 -15 9 -8 0 -15 5 -15 10 0 26 89 0 90 -26 1 -5 9 -19 19
-32 20 -23 25 -23 231 -21 14 1 30 5 36 10 6 5 19 6 29 3 14 -6 16 -3 10 14
-4 13 -2 22 4 22 6 0 11 -7 11 -15 0 -22 17 -18 23 6 6 23 27 17 27 -7 0 -19
3 -18 58 10 26 13 58 27 71 31 13 4 45 20 70 36 25 16 57 29 71 28 58 -4 71 8
85 83 5 27 1 41 -24 75 -17 23 -40 47 -52 54 l-22 11 20 -28z"/>
<path d="M3018 2523 c7 -3 16 -2 19 1 4 3 -2 6 -13 5 -11 0 -14 -3 -6 -6z"/>
<path d="M4196 2423 c-7 -7 4 -77 14 -87 12 -12 40 11 40 33 0 9 -6 23 -12 30
-10 11 -10 13 0 7 7 -4 12 -2 12 6 0 12 -43 21 -54 11z"/>
<path d="M3000 2360 c-9 -6 -10 -10 -3 -10 6 0 15 5 18 10 8 12 4 12 -15 0z"/>
<path d="M18 1983 c-14 -3 -18 -15 -18 -47 0 -40 2 -43 40 -60 54 -24 107 -81
128 -138 9 -27 19 -48 22 -48 13 0 28 67 23 95 -3 17 -20 50 -38 75 -17 25
-38 60 -45 78 -17 44 -57 60 -112 45z"/>
<path d="M2605 1945 c4 -11 10 -28 12 -37 3 -10 9 -18 14 -18 5 0 9 -7 9 -16
0 -8 5 -12 10 -9 17 10 11 28 -21 65 -20 22 -28 28 -24 15z"/>
<path d="M4640 1933 c-97 -7 -110 -12 -110 -41 0 -37 7 -45 65 -76 99 -55 118
-90 119 -221 1 -136 -59 -254 -193 -383 -42 -40 -110 -93 -151 -118 -77 -45
-218 -104 -250 -104 -10 0 -21 -4 -24 -8 -3 -5 -62 -21 -131 -37 -69 -16 -125
-32 -125 -36 0 -7 28 -1 210 45 210 54 350 101 444 148 52 27 144 122 178 184
42 77 108 287 134 428 43 233 42 234 -166 219z"/>
<path d="M408 1883 c-25 -6 -22 -22 5 -32 12 -5 45 -26 71 -46 55 -42 107 -75
119 -75 4 0 7 13 7 29 0 20 -14 44 -46 80 -43 48 -49 51 -92 50 -26 -1 -55 -3
-64 -6z"/>
<path d="M332 1718 c8 -40 68 -135 68 -110 0 18 -56 138 -68 146 -7 4 -7 -8 0
-36z"/>
<path d="M676 1703 c3 -32 8 -74 11 -93 l6 -35 6 30 c4 20 13 31 31 35 29 7
36 33 19 76 -10 26 -12 27 -18 9 -7 -17 -8 -17 -15 8 -4 18 -13 27 -25 27 -18
0 -19 -6 -15 -57z"/>
<path d="M2920 1720 c0 -5 5 -10 11 -10 5 0 7 5 4 10 -3 6 -8 10 -11 10 -2 0
-4 -4 -4 -10z"/>
<path d="M4090 1720 c0 -5 7 -10 15 -10 8 0 15 5 15 10 0 6 -7 10 -15 10 -8 0
-15 -4 -15 -10z"/>
<path d="M4163 1693 c0 -28 4 -43 12 -43 7 0 16 -7 19 -16 5 -12 10 -14 20 -5
7 6 16 8 19 4 4 -3 7 5 7 20 0 14 -5 29 -12 33 -7 4 -8 3 -4 -4 4 -7 1 -12 -9
-12 -9 0 -13 4 -10 10 3 5 0 7 -8 4 -10 -3 -18 4 -24 23 -9 26 -10 26 -10 -14z"/>
<path d="M3074 1709 c-3 -5 6 -9 20 -9 31 0 34 6 6 13 -11 3 -23 1 -26 -4z"/>
<path d="M4060 1701 c0 -6 4 -11 9 -11 5 0 12 -8 15 -17 3 -11 4 -8 3 6 -2 24
-27 44 -27 22z"/>
<path d="M2444 1675 c-18 -72 21 -245 67 -297 18 -20 20 -21 13 -3 -42 117
-45 131 -58 288 -4 38 -14 44 -22 12z"/>
<path d="M1279 1654 c-30 -31 -31 -34 -13 -40 20 -7 63 -53 64 -67 0 -11 -43
-5 -53 8 -5 6 -7 0 -4 -12 3 -13 1 -23 -3 -23 -5 0 -1 -18 7 -40 9 -22 21 -40
28 -40 6 0 21 -11 33 -25 12 -14 26 -25 32 -25 11 0 26 -52 29 -97 2 -26 31
-12 48 24 30 63 22 271 -12 298 -7 5 -15 16 -17 24 -2 8 -27 22 -56 31 l-51
17 -32 -33z"/>
<path d="M3055 1680 c3 -5 11 -10 16 -10 6 0 7 5 4 10 -3 6 -11 10 -16 10 -6
0 -7 -4 -4 -10z"/>
<path d="M3910 1669 c-14 -12 -33 -19 -47 -16 -18 3 -23 0 -23 -18 0 -12 -6
-28 -14 -34 -11 -9 -12 -6 -8 14 3 17 0 25 -10 25 -9 0 -19 -19 -27 -50 -13
-50 -31 -68 -31 -30 0 10 -8 24 -17 29 -10 6 -12 11 -5 11 6 0 12 4 12 9 0 5
-12 6 -27 2 -18 -5 -29 -15 -31 -29 -2 -13 -11 -22 -22 -22 -10 0 -21 -7 -24
-16 -3 -8 -11 -12 -17 -9 -7 5 -4 14 7 26 10 11 19 26 20 34 2 12 -2 11 -22
-2 -24 -15 -33 -6 -13 14 8 8 8 13 0 17 -6 4 -11 0 -11 -8 0 -9 -4 -16 -9 -16
-5 0 -7 -9 -4 -21 7 -26 -35 -69 -47 -49 -5 8 0 28 11 49 10 20 19 41 19 48 0
8 13 13 34 13 19 0 38 5 41 10 9 14 -21 24 -42 14 -10 -4 -27 -8 -38 -8 -16
-1 -19 -7 -17 -33 2 -18 -1 -33 -6 -33 -6 0 -19 -3 -29 -6 -15 -5 -15 -4 -3 5
12 9 10 11 -12 11 -18 0 -28 5 -28 15 0 10 -10 15 -34 15 -53 0 -116 -40 -116
-74 0 -9 -7 -16 -15 -16 -11 0 -15 -8 -13 -27 2 -15 -1 -28 -7 -28 -5 0 -15
-4 -22 -8 -15 -10 -27 11 -15 26 5 7 6 21 1 32 -12 31 -10 39 6 25 12 -10 15
-10 15 0 0 7 -8 19 -17 26 -13 10 -14 13 -4 14 11 0 11 3 1 15 -7 8 -18 15
-25 15 -7 0 -18 7 -25 15 -16 19 -41 20 -34 1 3 -8 0 -18 -7 -22 -19 -11 -99
-22 -93 -12 3 4 16 8 30 8 13 0 24 5 24 11 0 6 -17 9 -42 7 -24 -2 -43 1 -43
7 0 15 -15 35 -26 35 -6 0 -7 -4 -4 -10 3 -5 0 -10 -7 -10 -8 -1 -6 -6 6 -15
19 -15 19 -15 -2 -15 -27 0 -75 21 -85 37 -4 7 -15 13 -24 13 -10 0 -6 -7 13
-22 16 -12 32 -26 35 -31 3 -5 9 -8 13 -8 19 3 18 -1 -3 -13 l-24 -13 23 -13
c20 -11 22 -10 17 4 -8 20 9 21 57 1 33 -14 49 -35 26 -35 -18 0 -11 -20 8
-21 14 0 15 -1 2 -7 -14 -6 -14 -9 2 -24 15 -15 18 -15 18 -3 0 8 5 15 10 15
6 0 10 -9 10 -20 0 -13 5 -18 15 -14 8 4 22 3 32 0 14 -6 14 -8 -3 -20 -17
-13 -16 -15 19 -21 20 -4 48 -4 62 -1 14 4 25 2 25 -4 0 -5 7 -10 15 -10 8 0
15 -6 15 -12 0 -7 7 -21 15 -32 13 -17 16 -17 61 -2 33 11 51 13 65 5 15 -7
21 -6 25 6 3 8 13 15 21 15 9 0 13 -6 9 -15 -4 -10 1 -15 14 -15 11 0 20 6 20
13 0 9 2 9 9 -1 7 -11 11 -11 24 2 8 9 22 16 30 16 9 0 18 6 20 13 4 9 6 9 6
0 1 -15 31 -6 48 14 9 12 15 12 35 2 13 -7 35 -12 51 -10 15 1 27 -1 27 -6 0
-4 13 -9 29 -10 22 -2 34 5 46 23 10 15 22 23 31 20 8 -3 14 1 14 8 0 7 9 21
20 31 11 10 20 25 21 34 0 9 3 11 5 4 3 -6 -2 -35 -10 -64 -21 -70 -22 -69 22
-62 48 8 176 90 191 124 6 14 20 35 32 48 21 23 18 44 -3 23 -20 -20 -31 -13
-25 16 7 35 -19 75 -33 52 -5 -8 -10 -22 -10 -30 0 -13 -1 -13 -10 0 -6 9 -10
10 -10 3 0 -6 5 -15 11 -19 8 -4 7 -9 -2 -15 -22 -14 -29 -11 -29 14 l0 22
-19 -24 c-20 -26 -41 -21 -41 10 0 10 -7 19 -14 19 -11 0 -16 -14 -18 -47 -3
-49 -20 -62 -26 -21 -2 13 -8 28 -13 33 -7 7 -8 3 -3 -9 5 -13 4 -17 -4 -12
-7 4 -13 -6 -18 -29 -6 -35 -20 -53 -31 -41 -4 3 -1 30 6 60 9 39 18 56 35 64
13 6 26 20 29 31 3 12 4 21 4 21 -1 -1 -13 -10 -27 -21z m210 -55 c0 -8 -4
-12 -10 -9 -5 3 -10 10 -10 16 0 5 5 9 10 9 6 0 10 -7 10 -16z m-980 -64 c0
-10 8 -24 18 -30 16 -11 16 -11 -1 -6 -10 3 -21 6 -23 6 -2 0 -4 7 -4 16 0 8
-4 12 -10 9 -6 -3 -7 1 -4 9 9 22 24 20 24 -4z m380 -44 c0 -8 -7 -16 -15 -20
-17 -6 -18 -4 -9 18 8 20 24 21 24 2z m80 -6 c0 -5 -4 -10 -10 -10 -5 0 -10 5
-10 10 0 6 5 10 10 10 6 0 10 -4 10 -10z m97 -44 c-19 -19 -28 -8 -20 23 5 20
7 21 21 7 13 -13 13 -16 -1 -30z m270 -8 c-3 -8 -6 -5 -6 6 -1 11 2 17 5 13 3
-3 4 -12 1 -19z m-774 -5 c-7 -2 -19 -2 -25 0 -7 3 -2 5 12 5 14 0 19 -2 13
-5z"/>
<path d="M3112 1664 c-7 -8 -8 -14 -3 -14 10 0 25 19 20 25 -2 1 -10 -3 -17
-11z"/>
<path d="M820 1630 c0 -46 22 -140 33 -140 5 0 6 13 2 29 -3 17 -8 51 -10 77
-5 57 -25 85 -25 34z"/>
<path d="M855 1640 c3 -5 8 -10 11 -10 2 0 4 5 4 10 0 6 -5 10 -11 10 -5 0 -7
-4 -4 -10z"/>
<path d="M896 1641 c-3 -5 1 -14 9 -21 9 -7 13 -20 10 -30 -3 -10 5 -26 19
-39 14 -13 23 -28 22 -35 -2 -6 -1 -8 1 -3 3 4 18 7 34 7 32 0 36 13 18 54
-11 23 -49 43 -49 25 0 -4 -6 -6 -14 -3 -8 3 -12 12 -9 21 9 22 -29 44 -41 24z"/>
<path d="M2186 1625 c-9 -14 -13 -25 -9 -25 10 0 36 40 30 46 -2 3 -12 -7 -21
-21z"/>
<path d="M1995 1575 c1 -16 3 -34 5 -40 2 -5 0 -21 -4 -34 -5 -14 -4 -27 3
-34 6 -6 11 -16 11 -21 0 -6 -5 -4 -10 4 -7 10 -10 11 -10 2 0 -7 7 -15 15
-18 8 -4 15 -14 15 -23 0 -9 17 -34 38 -56 50 -54 77 -95 85 -126 8 -30 53
-86 63 -76 4 3 1 14 -7 23 -8 9 -14 22 -14 28 -2 26 -27 96 -35 96 -4 0 -11
14 -15 30 -4 17 -12 30 -20 30 -29 0 -26 83 5 147 15 32 18 33 31 17 11 -13
11 -18 2 -21 -7 -3 -13 -17 -13 -33 0 -16 6 -31 13 -34 10 -5 10 -7 0 -12 -14
-6 -18 -34 -5 -34 15 0 41 80 40 123 0 25 2 50 6 55 12 19 -12 23 -30 5 -12
-13 -19 -14 -22 -5 -2 6 -15 12 -28 12 -14 0 -27 6 -30 14 -3 9 -20 13 -48 12
-40 -1 -42 -2 -41 -31z"/>
<path d="M2138 1603 c7 -3 16 -2 19 1 4 3 -2 6 -13 5 -11 0 -14 -3 -6 -6z"/>
<path d="M1070 1590 c0 -5 5 -10 10 -10 6 0 10 5 10 10 0 6 -4 10 -10 10 -5 0
-10 -4 -10 -10z"/>
<path d="M1940 1562 c0 -11 -7 -25 -15 -32 -8 -7 -15 -21 -15 -30 0 -18 -24
-26 -105 -35 -35 -3 -39 -10 -23 -38 57 -104 71 -137 94 -224 14 -54 29 -121
34 -149 15 -93 31 -139 41 -123 7 11 9 9 9 -8 0 -26 20 -42 21 -16 0 10 3 13
5 6 3 -7 11 -10 18 -7 7 3 19 -2 26 -11 11 -13 9 -15 -11 -15 -22 0 -22 -1 -6
-17 15 -15 19 -16 27 -4 7 12 11 12 24 2 13 -11 16 -11 16 3 0 9 7 16 15 16 8
0 15 -7 15 -15 0 -8 5 -15 10 -15 10 0 14 14 11 38 -1 8 7 16 18 19 15 4 21
13 21 34 0 15 4 30 9 34 6 3 -22 61 -61 128 -85 145 -122 229 -139 317 -6 36
-15 70 -19 75 -5 6 -6 24 -4 42 2 18 -1 35 -6 38 -6 3 -10 -3 -10 -13z"/>
<path d="M2988 1543 c7 -3 16 -2 19 1 4 3 -2 6 -13 5 -11 0 -14 -3 -6 -6z"/>
<path d="M1587 1524 c-16 -16 108 -164 137 -164 8 0 16 -7 20 -15 8 -21 36 -7
36 18 0 23 -97 122 -130 132 -11 3 -20 13 -20 21 0 14 -31 20 -43 8z"/>
<path d="M1546 1447 c9 -82 47 -198 74 -227 26 -28 48 -41 36 -22 -3 5 2 21
10 36 18 36 18 46 -4 92 -25 55 -60 105 -92 131 l-27 22 3 -32z"/>
<path d="M861 1424 c0 -11 3 -14 6 -6 3 7 2 16 -1 19 -3 4 -6 -2 -5 -13z"/>
<path d="M3667 1403 c-11 -10 -8 -43 3 -43 6 0 10 11 10 25 0 26 -2 29 -13 18z"/>
<path d="M2220 1122 c0 -4 22 -35 48 -69 26 -33 54 -71 62 -84 8 -13 33 -41
54 -63 22 -23 33 -32 25 -21 -8 11 -21 33 -29 48 -8 16 -24 39 -36 52 -12 13
-32 38 -45 57 -12 18 -29 37 -36 41 -7 4 -13 14 -13 21 0 8 -7 16 -15 20 -8 3
-15 2 -15 -2z"/>
<path d="M616 940 c3 -36 9 -90 15 -120 15 -88 17 -101 26 -178 5 -41 14 -77
20 -80 5 -4 13 -24 17 -44 4 -21 11 -38 16 -38 6 0 10 -5 10 -11 0 -12 29 -38
42 -39 16 0 -6 100 -49 225 -40 119 -72 226 -94 315 -6 26 -7 18 -3 -30z m134
-463 c0 -5 -4 -5 -10 -2 -5 3 -10 14 -10 23 0 15 2 15 10 2 5 -8 10 -19 10
-23z"/>
<path d="M3793 903 c9 -2 23 -2 30 0 6 3 -1 5 -18 5 -16 0 -22 -2 -12 -5z"/>
<path d="M2420 856 c0 -2 8 -10 18 -17 15 -13 16 -12 3 4 -13 16 -21 21 -21
13z"/>
<path d="M728 401 c6 -4 16 -25 21 -46 l9 -40 -1 35 c0 20 2 40 5 45 3 6 -5
11 -19 12 -15 0 -21 -2 -15 -6z"/>
</g>
</svg>
